Coordinates
version=1
nRows=10
nColumns=63
inDegrees=yes

Units are S.I. units (second, meters, Newtons, ...)
If the header above contains a line with 'inDegrees', this indicates whether rotational values are in degrees (yes) or radians (no).

endheader
time	pelvis_tilt	pelvis_list	pelvis_rotation	pelvis_tx	pelvis_ty	pelvis_tz	hip_flexion_r	hip_adduction_r	hip_rotation_r	knee_angle_r	knee_angle_r_beta	ankle_angle_r	subtalar_angle_r	mtp_angle_r	hip_flexion_l	hip_adduction_l	hip_rotation_l	knee_angle_l	knee_angle_l_beta	ankle_angle_l	subtalar_angle_l	mtp_angle_l	L5_S1_Flex_Ext	L5_S1_Lat_Bending	L5_S1_axial_rotation	L4_L5_Flex_Ext	L4_L5_Lat_Bending	L4_L5_axial_rotation	L3_L4_Flex_Ext	L3_L4_Lat_Bending	L3_L4_axial_rotation	L2_L3_Flex_Ext	L2_L3_Lat_Bending	L2_L3_axial_rotation	L1_L2_Flex_Ext	L1_L2_Lat_Bending	L1_L2_axial_rotation	L1_T12_Flex_Ext	L1_T12_Lat_Bending	L1_T12_axial_rotation	Abs_r3	Abs_r2	Abs_r1	Abs_t1	Abs_t2	neck_flexion	neck_bending	neck_rotation	arm_flex_r	arm_add_r	arm_rot_r	elbow_flex_r	pro_sup_r	wrist_flex_r	wrist_dev_r	arm_flex_l	arm_add_l	arm_rot_l	elbow_flex_l	pro_sup_l	wrist_flex_l	wrist_dev_l
      7.07317073	      6.14829113	    -14.14809159	    113.63811580	      0.20639339	      0.36892891	      0.64264507	      5.98754124	      0.97909123	    -35.64546885	      9.00229088	      0.15711962	     32.67033603	     14.80783248	      0.00000000	      4.13977515	     -6.69143711	      3.99152565	      0.80217774	      0.01400064	     27.75599647	     -4.01382316	      0.00000000	      0.32668472	      1.27839320	      1.24670151	      0.60668619	      1.70026296	      1.32462036	      0.53671032	      3.10828523	      1.32462036	      0.37336796	      3.10828523	      1.09086382	      0.30335943	      2.60689942	      1.01294498	      0.18666765	      1.98023107	      0.93502613	      2.33347626	     14.46143959	      6.93377980	      0.00000000	      0.00000000	     28.12968540	     -0.00130860	     18.67949740	      3.97852740	    -26.18887729	     87.96206871	      7.59825910	      3.19947140	     -3.12387667	     -2.15968639	     20.41392184	     -4.32879434	     75.51576684	     30.60079261	     88.01014335	     -6.36177196	      5.02133439
      7.09756098	      6.48586575	    -14.81906761	    112.82649211	      0.20703067	      0.36905717	      0.64487217	      7.44433177	      0.64561474	    -36.09848364	     10.12939660	      0.17679132	     32.46715925	     14.43775974	      0.00000000	      4.91010495	     -6.68589170	      3.86153492	      0.78914291	      0.01377314	     27.76478084	     -5.15823629	      0.00000000	      0.30643269	      1.32073147	      1.39162854	      0.56907615	      1.75657285	      1.47860533	      0.50343827	      3.21122649	      1.47860533	      0.35022192	      3.21122649	      1.21767498	      0.28455340	      2.69323561	      1.13069819	      0.17509564	      2.04581304	      1.04372141	      2.18881807	     14.94037850	      7.73982047	      0.00000000	      0.00000000	     28.15022487	     -0.03103304	     20.16294570	     -0.90526559	    -27.47356871	     81.36933371	      7.81248061	      3.30412994	     -3.59227198	     -0.99548469	     17.66493879	     -5.52780234	     70.67911775	     34.27283654	     87.75860191	     -5.34186498	      7.60452127
      7.12195122	      6.42738566	    -15.54303571	    111.96746063	      0.20896349	      0.37015775	      0.64627363	      8.79204622	      0.06414585	    -36.48254472	     11.26392080	      0.19659250	     31.92944775	     13.85544608	      0.00000000	      5.57879348	     -6.39775700	      3.18129571	      0.80394945	      0.01403156	     27.02142283	     -5.77165457	      0.00000000	      0.29280716	      1.25657656	      1.50609291	      0.54377218	      1.67124683	      1.60022371	      0.48105289	      3.05524026	      1.60022371	      0.33464931	      3.05524026	      1.31783129	      0.27190073	      2.56241093	      1.22370049	      0.16731001	      1.94643710	      1.12956968	      2.09149228	     14.21464542	      8.37643692	      0.00000000	      0.00000000	     28.16693612	     -0.18909088	     17.94953764	     -4.27805437	    -27.62379025	     80.90858121	      7.12288849	      3.47307909	     -2.46683805	     -1.86269235	     15.57516998	     -7.40602962	     67.45217992	     38.34657357	     86.58127954	     -5.82541964	      8.18088388
      7.14634146	      6.30833166	    -16.30189758	    111.35721745	      0.21124981	      0.37102703	      0.64714513	     10.06130325	     -0.47347592	    -36.74692824	     12.21067184	      0.21311643	     31.53475546	     13.25081927	      0.00000000	      6.30892936	     -6.08690917	      2.52040688	      0.85916522	      0.01499526	     25.95235459	     -6.07828312	      0.00000000	      0.29025721	      1.15232838	      1.53453995	      0.53903667	      1.53259675	      1.63044870	      0.47686358	      2.80177123	      1.63044870	      0.33173497	      2.80177123	      1.34272246	      0.26953285	      2.34982804	      1.24681371	      0.16585297	      1.78495667	      1.15090496	      2.07327826	     13.03536915	      8.53465083	      0.00000000	      0.00000000	     28.16599298	      0.62494836	     15.24272930	     -6.57123144	    -27.44992868	     81.79910884	      6.75587587	      3.84586231	     -1.35319984	     -3.90211421	     13.83926137	     -9.37218048	     65.09351101	     41.76830903	     85.12626210	     -6.27707963	      7.06807203
      7.17073171	      6.41960022	    -16.92033753	    110.30893044	      0.21345294	      0.37131556	      0.64772164	     11.46875067	     -0.63691334	    -35.29367404	     13.41676112	      0.23416666	     30.90026147	     11.39503485	      0.00000000	      6.84047520	     -6.08260107	      1.29605311	      0.85385784	      0.01490263	     25.29764406	     -6.40973991	      0.00000000	      0.26626599	      1.10988048	      1.57814061	      0.49448257	      1.47614104	      1.67677440	      0.43744839	      2.69856340	      1.67677440	      0.30431540	      2.69856340	      1.38087304	      0.24725460	      2.26326828	      1.28223925	      0.15214439	      1.71920487	      1.18360546	      1.90191134	     12.55518998	      8.77714465	      0.00000000	      0.00000000	     28.17368498	      1.34799854	     14.59616179	     -7.74646234	    -26.59570797	    102.63945573	      2.05492671	      2.57070801	      0.04282190	     -6.04547925	     11.88025677	    -10.63198795	     62.11482963	     43.83211586	     84.04666814	     -6.59780707	      5.14093250
      7.19512195	      6.62489835	    -17.33361607	    109.61546120	      0.21486484	      0.37122616	      0.64893752	     12.61749420	     -0.76386982	    -34.71493141	     14.67630556	      0.25614985	     30.51882372	     10.89987597	      0.00000000	      7.29407921	     -6.18898245	      0.37608132	      0.84876306	      0.01481371	     25.09976754	     -6.55871884	      0.00000000	      0.22920748	      1.10614017	      1.51958458	      0.42566121	      1.47116642	      1.61455861	      0.37656496	      2.68946920	      1.61455861	      0.26196123	      2.68946920	      1.32963650	      0.21284206	      2.25564103	      1.23466247	      0.13096915	      1.71341112	      1.13968843	      1.63720609	     12.51287881	      8.45147354	      0.00000000	      0.00000000	     28.15392100	      2.11648922	     15.26931936	     -8.71384015	    -27.03662950	    115.00962276	      0.93800472	      3.22805786	     -2.53115588	     -8.14231692	     10.43310152	    -11.38079059	     60.70343056	     44.15574761	     84.07668996	     -8.30709016	      1.35261143
      7.21951220	      6.90151233	    -17.62342862	    109.04276207	      0.21613405	      0.37093834	      0.65027511	     13.62427885	     -0.72704979	    -33.79291704	     15.88840615	      0.27730500	     30.06857513	     10.39185644	      0.00000000	      7.67373782	     -6.39916087	     -0.51256806	      0.84190628	      0.01469404	     25.23830624	     -6.60775132	      0.00000000	      0.19653903	      1.11790999	      1.38808199	      0.36499264	      1.48682029	      1.47483711	      0.32289398	      2.71808635	      1.47483711	      0.22462446	      2.71808635	      1.21457174	      0.18250615	      2.27964205	      1.12781662	      0.11230240	      1.73164258	      1.04106149	      1.40385865	     12.64602140	      7.72009560	      0.00000000	      0.00000000	     28.11808113	      2.60459486	     16.11631074	     -8.89866419	    -27.67115368	    123.71541934	      0.62870178	      4.60530958	     -5.78299345	     -9.81808252	      8.80849096	    -11.55444979	     58.84722169	     42.78660928	     84.35913395	     -9.97138923	     -3.22484684
      7.24390244	      7.20139943	    -17.84935048	    108.50686929	      0.21764119	      0.37047311	      0.65109468	     14.47028779	     -0.58872993	    -33.12203457	     16.88695700	      0.29473300	     29.95857538	     10.39239279	      0.00000000	      7.96604570	     -6.68859105	     -1.31997317	      0.83668420	      0.01460289	     25.51657600	     -6.69883821	      0.00000000	      0.17048813	      1.11869846	      1.21138904	      0.31661351	      1.48786896	      1.28710085	      0.28009495	      2.72000345	      1.28710085	      0.19485089	      2.72000345	      1.05996541	      0.15831528	      2.28124991	      0.98425359	      0.09741692	      1.73286392	      0.90854178	      1.21777968	     12.65494077	      6.73738241	      0.00000000	      0.00000000	     28.07629651	      3.05446788	     16.41237873	     -8.45259026	    -28.00060260	    126.63847010	      0.55613989	      4.55803845	     -6.41933369	    -11.19153362	      6.89565628	    -11.13247634	     55.98890752	     39.94028438	     83.50147327	    -11.00128607	     -7.89926104
      7.26829268	      7.42955930	    -18.24385124	    107.85904025	      0.21965281	      0.36947729	      0.65104527	     15.41669735	     -0.53793252	    -32.54874523	     17.76768811	      0.31010466	     30.34779813	     10.96477098	      0.00000000	      8.32957886	     -6.91748701	     -2.09703496	      0.87083962	      0.01519902	     25.73813220	     -6.96369534	      0.00000000	      0.16594918	      1.08848180	      0.98498449	      0.30818422	      1.44768080	      1.04654602	      0.27263790	      2.64653466	      1.04654602	      0.18966331	      2.64653466	      0.86186143	      0.15410041	      2.21963209	      0.80029990	      0.09482336	      1.68605831	      0.73873837	      1.18535838	     12.31312385	      5.47818824	      0.00000000	      0.00000000	     28.02655016	      3.39142188	     16.11999502	     -7.47896568	    -27.89694362	    124.07347678	      0.61861043	      2.64620300	     -3.15735086	    -12.88594543	      4.75298226	    -10.62136264	     52.11061475	     36.99614698	     81.27067823	    -11.54471156	    -10.79295487
      7.29268293	      7.51692081	    -18.74368530	    107.11698834	      0.22223363	      0.36810256	      0.65039449	     16.40820289	     -0.67935303	    -32.40121574	     18.66342518	      0.32573822	     31.10767332	     11.94875406	      0.00000000	      8.69932679	     -7.04353141	     -2.98765689	      0.91234647	      0.01592345	     25.88453927	     -7.05119273	      0.00000000	      0.16648088	      1.03027080	      0.77255641	      0.30917165	      1.37026016	      0.82084118	      0.27351144	      2.50500042	      0.82084118	      0.19027100	      2.50500042	      0.67598686	      0.15459415	      2.10092821	      0.62770208	      0.09512718	      1.59588947	      0.57941731	      1.18915629	     11.65462931	      4.29672698	      0.00000000	      0.00000000	     27.97701098	      4.03812440	     16.11802518	     -6.37827810	    -27.30036452	    113.45161589	      1.18167861	      1.73152872	      3.23201234	    -15.15285427	      3.02324868	    -10.11821394	     47.86368281	     34.08603874	     78.48149538	    -10.56385828	    -11.95108884
